<?xml version="1.0" standalone="no"?><!DOCTYPE svg PUBLIC "-//W3C//DTD SVG 1.1//EN" "http://www.w3.org/Graphics/SVG/1.1/DTD/svg11.dtd"><svg t="1720596835030" class="icon" viewBox="0 0 1024 1024" version="1.1" xmlns="http://www.w3.org/2000/svg" p-id="2514" xmlns:xlink="http://www.w3.org/1999/xlink" width="128" height="128"><path d="M512 0C229.376 0 0 229.376 0 512s229.376 512 512 512 512-229.376 512-512S794.624 0 512 0zM257.536 625.664l-36.352 0.512-36.352 0.512-39.424-104.96c-22.016-57.856-39.936-105.472-39.936-105.984-0.512-0.512 15.36-1.024 34.304-1.024h34.816l4.608 14.848c2.56 8.192 13.312 41.984 23.552 74.752 10.24 32.768 18.944 59.392 19.456 58.368 0.512-0.512 10.752-34.304 23.552-74.752l22.528-73.728h68.096l-2.56 7.168c-1.536 4.096-18.944 51.712-39.424 105.984l-36.864 98.304z m243.712-23.552l-0.512 24.064H323.072l0.512-4.608c1.024-7.168 5.632-20.992 10.752-31.744 9.728-19.968 28.672-39.424 66.048-68.096 33.792-26.112 43.52-39.936 37.888-54.272-3.072-8.192-13.312-14.848-23.04-15.36-6.144 0-13.824 3.072-17.92 7.168-3.584 3.072-8.704 15.36-8.704 20.48 0 1.536-0.512 3.584-1.024 3.584-1.536 1.024-57.856-3.584-59.392-4.608-1.536-1.536 2.048-18.432 6.656-29.184 8.192-19.968 26.624-33.28 51.712-37.376 16.896-3.072 50.176-1.536 64 2.048 20.992 5.632 34.816 16.384 43.008 33.28 9.216 18.944 6.656 44.032-6.144 63.488-8.192 12.8-23.04 25.6-52.736 46.592-6.144 4.096-14.336 10.752-17.92 14.336L409.6 578.56h92.16l-0.512 23.552z m380.928 24.576H844.8l-19.968-32.768c-11.264-17.92-20.48-32.768-20.992-32.768-0.512 0-9.728 14.848-20.992 32.768l-19.968 32.256-123.904 0.512-123.904 0.512V414.72H691.2v46.08h-110.08v32.256l50.688 0.512 50.688 0.512 0.512 22.016 0.512 22.016-50.688 0.512-50.688 0.512v40.448l56.32 0.512 56.32 0.512 0.512 18.944 0.512 18.944 32.768-49.152c17.92-27.136 32.768-50.176 32.768-51.2 0-1.024-14.336-24.064-32.256-51.2s-32.768-49.664-32.768-50.176 16.384-0.512 36.864-0.512h36.352l17.92 31.744c9.728 17.408 18.432 31.232 18.944 30.72 0.512-0.512 8.704-14.336 17.92-31.744l17.408-30.72h35.84c19.968 0 35.84 0.512 35.84 0.512 0 0.512-14.336 23.552-32.256 51.2s-32.256 50.688-32.256 51.2c0 0.512 15.872 24.576 34.816 53.76 18.944 29.184 35.328 53.76 35.84 54.272 0-1.024-7.68-0.512-37.376-0.512z" fill="#ffffff" p-id="2515"></path></svg>